<?xml version="1.0" encoding="utf-8"?>
<!-- Generator: Adobe Illustrator 16.0.0, SVG Export Plug-In . SVG Version: 6.00 Build 0)  -->
<!DOCTYPE svg PUBLIC "-//W3C//DTD SVG 1.1//EN" "http://www.w3.org/Graphics/SVG/1.1/DTD/svg11.dtd">
<svg version="1.1" id="Calque_1" xmlns="http://www.w3.org/2000/svg" xmlns:xlink="http://www.w3.org/1999/xlink" x="0px" y="0px"
	 width="42.75px" height="43px" viewBox="0 0 42.75 43" enable-background="new 0 0 42.75 43" xml:space="preserve">
<g>
	<circle fill="#F18F01" cx="21.375" cy="21.499" r="20.673"/>
	<g>
		<rect x="11.237" y="16.686" fill="#FFFFFF" width="4.485" height="14.347"/>
		<path fill="#FFFFFF" d="M13.367,14.892h-0.031c-1.624,0-2.676-1.097-2.676-2.488c0-1.416,1.084-2.49,2.739-2.49
			c1.652,0,2.671,1.071,2.702,2.488C16.102,13.792,15.052,14.892,13.367,14.892z"/>
		<path fill="#FFFFFF" d="M33.655,31.033h-5.079V23.61c0-1.944-0.795-3.271-2.545-3.271c-1.337,0-2.08,0.896-2.428,1.759
			c-0.13,0.309-0.11,0.74-0.11,1.171v7.764h-5.034c0,0,0.063-13.152,0-14.347h5.034v2.252c0.3-0.985,1.907-2.39,4.476-2.39
			c3.184,0,5.687,2.065,5.687,6.507V31.033z"/>
	</g>
</g>
</svg>
