<?xml version="1.0" encoding="utf-8"?>
<!-- Generator: Adobe Illustrator 16.0.0, SVG Export Plug-In . SVG Version: 6.00 Build 0)  -->
<!DOCTYPE svg PUBLIC "-//W3C//DTD SVG 1.1//EN" "http://www.w3.org/Graphics/SVG/1.1/DTD/svg11.dtd">
<svg version="1.1" xmlns="http://www.w3.org/2000/svg" xmlns:xlink="http://www.w3.org/1999/xlink" x="0px" y="0px"
	 width="142.625px" height="34.125px" viewBox="0 0 142.625 34.125" enable-background="new 0 0 142.625 34.125"
	 xml:space="preserve">
<g id="Background" display="none">
	<rect x="-266.688" y="-379.75" display="inline" fill="#FFFFFF" width="800" height="800"/>
</g>
<g id="Object">
	<path fill="#F18F01" d="M1.667,0.813c1.987-2.751,26.971,5.117,31.952,7.532c4.982,2.412,4.058,8.598,0.688,8.938
		c-8.328,0.842-30.76,0.17-32.73-1.877C-0.394,13.361-0.319,3.563,1.667,0.813z M11.573,33.243c-0.618,0.618-7.26,0.771-8.958,0
		c-1.833-0.833-1.698-5.715-1.081-7.104c0.618-1.39,8.65-0.115,10.04,1.178C12.963,28.609,12.191,32.625,11.573,33.243z
		 M140.025,33.243c-1.699,0.771-8.34,0.618-8.959,0c-0.618-0.618-1.389-4.634,0-5.927c1.391-1.293,9.422-2.567,10.041-1.178
		C141.725,27.528,141.859,32.41,140.025,33.243z M140.973,0.813c1.986,2.75,2.061,12.548,0.09,14.594
		c-1.971,2.047-24.402,2.719-32.73,1.877c-3.369-0.341-4.293-6.526,0.688-8.938C114.002,5.931,138.986-1.938,140.973,0.813z"/>
	<g>
		<g>
			<path d="M38.645,29.359v4.604h-1.056V21.668c0-0.299,0.038-0.59,0.114-0.875c0.076-0.284,0.182-0.537,0.318-0.757
				c0.136-0.222,0.292-0.398,0.468-0.534c0.176-0.137,0.368-0.204,0.576-0.204H40.3c0.2,0,0.39,0.062,0.57,0.184
				c0.18,0.123,0.336,0.292,0.468,0.506c0.132,0.213,0.236,0.466,0.312,0.757s0.114,0.6,0.114,0.924v12.295h-1.056v-4.604H38.645z
				 M40.708,27.785v-6.176c0-0.207-0.044-0.383-0.132-0.525c-0.088-0.143-0.196-0.213-0.324-0.213h-1.152
				c-0.128,0-0.236,0.07-0.324,0.213s-0.132,0.318-0.132,0.525v6.176H40.708z"/>
			<path d="M45.676,33.963c-0.2,0-0.39-0.062-0.57-0.186c-0.18-0.121-0.336-0.29-0.468-0.504c-0.132-0.213-0.236-0.467-0.312-0.757
				c-0.076-0.293-0.114-0.6-0.114-0.923V19.277h1.056v12.374c0,0.207,0.044,0.382,0.132,0.525c0.088,0.142,0.196,0.213,0.324,0.213
				h1.608V19.277h1.056v14.686H45.676z"/>
			<path d="M54.689,19.277v1.594h-1.512v13.092h-1.044V20.871h-1.512v-1.594H54.689z"/>
			<path d="M60.881,31.594c0,0.323-0.038,0.63-0.114,0.923c-0.076,0.29-0.18,0.544-0.312,0.757
				c-0.132,0.214-0.288,0.383-0.468,0.504c-0.18,0.124-0.37,0.186-0.57,0.186h-1.236c-0.208,0-0.4-0.062-0.576-0.186
				c-0.176-0.121-0.332-0.29-0.468-0.504c-0.136-0.213-0.242-0.467-0.318-0.757c-0.076-0.293-0.114-0.6-0.114-0.923v-9.926
				c0-0.324,0.038-0.633,0.114-0.924c0.076-0.291,0.182-0.544,0.318-0.757c0.136-0.214,0.292-0.383,0.468-0.506
				c0.176-0.122,0.368-0.184,0.576-0.184h1.236c0.2,0,0.39,0.062,0.57,0.184c0.18,0.123,0.336,0.292,0.468,0.506
				c0.132,0.213,0.236,0.466,0.312,0.757c0.076,0.291,0.114,0.6,0.114,0.924V31.594z M57.761,31.651
				c0,0.207,0.044,0.382,0.132,0.525c0.088,0.142,0.196,0.213,0.324,0.213h1.152c0.128,0,0.236-0.071,0.324-0.213
				c0.088-0.144,0.132-0.318,0.132-0.525V21.609c0-0.207-0.044-0.383-0.132-0.525c-0.088-0.143-0.196-0.213-0.324-0.213h-1.152
				c-0.128,0-0.236,0.07-0.324,0.213c-0.088,0.143-0.132,0.318-0.132,0.525V31.651z"/>
			<path d="M67.504,22.619h-1.032v-1.108c-0.016-0.181-0.066-0.337-0.15-0.466s-0.182-0.193-0.294-0.193h-1.188
				c-0.128,0-0.234,0.071-0.318,0.214c-0.084,0.142-0.126,0.317-0.126,0.524v10.062c0,0.207,0.042,0.382,0.126,0.525
				c0.084,0.142,0.19,0.213,0.318,0.213h1.188c0.112,0,0.21-0.064,0.294-0.194c0.084-0.129,0.134-0.284,0.15-0.467v-1.107h1.032
				v1.05c-0.008,0.312-0.052,0.605-0.132,0.884c-0.08,0.277-0.186,0.521-0.318,0.729s-0.284,0.373-0.456,0.494
				c-0.172,0.124-0.358,0.186-0.558,0.186h-1.236c-0.2,0-0.39-0.062-0.57-0.186c-0.18-0.121-0.336-0.29-0.468-0.504
				c-0.132-0.213-0.236-0.467-0.312-0.757c-0.076-0.293-0.114-0.6-0.114-0.923v-9.947c0-0.322,0.038-0.631,0.114-0.921
				c0.076-0.293,0.18-0.544,0.312-0.759c0.132-0.214,0.288-0.381,0.468-0.505c0.18-0.123,0.37-0.185,0.57-0.185h1.236
				c0.2,0,0.386,0.062,0.558,0.185c0.172,0.124,0.324,0.288,0.456,0.495s0.238,0.45,0.318,0.729s0.124,0.574,0.132,0.884V22.619z"/>
			<path d="M74.08,22.619h-1.032v-1.108c-0.016-0.181-0.066-0.337-0.15-0.466s-0.182-0.193-0.294-0.193h-1.188
				c-0.128,0-0.234,0.071-0.318,0.214c-0.084,0.142-0.126,0.317-0.126,0.524v10.062c0,0.207,0.042,0.382,0.126,0.525
				c0.084,0.142,0.19,0.213,0.318,0.213h1.188c0.112,0,0.21-0.064,0.294-0.194c0.084-0.129,0.134-0.284,0.15-0.467v-1.107h1.032
				v1.05c-0.008,0.312-0.052,0.605-0.132,0.884c-0.08,0.277-0.186,0.521-0.318,0.729s-0.284,0.373-0.456,0.494
				c-0.172,0.124-0.358,0.186-0.558,0.186H71.38c-0.2,0-0.39-0.062-0.57-0.186c-0.18-0.121-0.336-0.29-0.468-0.504
				c-0.132-0.213-0.236-0.467-0.312-0.757c-0.076-0.293-0.114-0.6-0.114-0.923v-9.947c0-0.322,0.038-0.631,0.114-0.921
				c0.076-0.293,0.18-0.544,0.312-0.759c0.132-0.214,0.288-0.381,0.468-0.505c0.18-0.123,0.37-0.185,0.57-0.185h1.236
				c0.2,0,0.386,0.062,0.558,0.185c0.172,0.124,0.324,0.288,0.456,0.495s0.238,0.45,0.318,0.729s0.124,0.574,0.132,0.884V22.619z"/>
			<path d="M77.537,29.359v4.604H76.48V21.668c0-0.299,0.038-0.59,0.114-0.875c0.076-0.284,0.182-0.537,0.318-0.757
				c0.136-0.222,0.292-0.398,0.468-0.534c0.176-0.137,0.368-0.204,0.576-0.204h1.236c0.2,0,0.39,0.062,0.57,0.184
				c0.18,0.123,0.336,0.292,0.468,0.506c0.132,0.213,0.236,0.466,0.312,0.757s0.114,0.6,0.114,0.924v12.295h-1.056v-4.604H77.537z
				 M79.601,27.785v-6.176c0-0.207-0.044-0.383-0.132-0.525c-0.088-0.143-0.196-0.213-0.324-0.213h-1.152
				c-0.128,0-0.236,0.07-0.324,0.213s-0.132,0.318-0.132,0.525v6.176H79.601z"/>
			<path d="M86.08,21.745c0-0.247-0.052-0.457-0.156-0.633c-0.104-0.174-0.236-0.261-0.396-0.261H84.64
				c-0.16,0-0.292,0.087-0.396,0.261c-0.104,0.176-0.156,0.386-0.156,0.633v1.863c0,0.312,0.056,0.577,0.168,0.797
				c0.112,0.222,0.244,0.416,0.396,0.583l1.5,1.65c0.288,0.339,0.526,0.723,0.714,1.157c0.188,0.434,0.282,0.955,0.282,1.563v2.079
				c0,0.349-0.042,0.677-0.126,0.979c-0.084,0.306-0.196,0.574-0.336,0.807c-0.14,0.234-0.304,0.414-0.492,0.544
				s-0.39,0.194-0.606,0.194h-0.96c-0.216,0-0.42-0.064-0.612-0.194c-0.192-0.13-0.358-0.31-0.498-0.544
				c-0.14-0.232-0.252-0.501-0.336-0.807c-0.084-0.303-0.126-0.631-0.126-0.979v-0.817h0.972v0.874c0,0.259,0.054,0.475,0.162,0.642
				c0.108,0.168,0.238,0.253,0.39,0.253h0.972c0.152,0,0.28-0.085,0.384-0.253c0.104-0.167,0.156-0.383,0.156-0.642v-2.194
				c0-0.312-0.056-0.576-0.168-0.797c-0.112-0.219-0.244-0.414-0.396-0.583l-1.488-1.669c-0.296-0.337-0.539-0.723-0.726-1.156
				c-0.188-0.435-0.282-0.948-0.282-1.544v-1.729c0-0.35,0.042-0.68,0.126-0.991c0.084-0.31,0.196-0.578,0.336-0.806
				c0.14-0.227,0.306-0.408,0.498-0.544s0.396-0.204,0.612-0.204h0.888c0.216,0,0.418,0.068,0.606,0.204s0.354,0.317,0.498,0.544
				c0.144,0.228,0.256,0.496,0.336,0.806c0.08,0.312,0.12,0.642,0.12,0.991v0.797H86.08V21.745z"/>
			<path d="M98.584,31.594c0,0.323-0.038,0.63-0.114,0.923c-0.076,0.29-0.18,0.544-0.312,0.757
				c-0.132,0.214-0.288,0.383-0.468,0.504c-0.18,0.124-0.37,0.186-0.57,0.186h-1.236c-0.208,0-0.4-0.062-0.576-0.186
				c-0.176-0.121-0.332-0.29-0.468-0.504c-0.136-0.213-0.242-0.467-0.318-0.757c-0.076-0.293-0.114-0.6-0.114-0.923v-9.926
				c0-0.324,0.038-0.633,0.114-0.924c0.076-0.291,0.182-0.544,0.318-0.757c0.136-0.214,0.292-0.383,0.468-0.506
				c0.176-0.122,0.368-0.184,0.576-0.184h1.236c0.2,0,0.39,0.062,0.57,0.184c0.18,0.123,0.336,0.292,0.468,0.506
				c0.132,0.213,0.236,0.466,0.312,0.757c0.076,0.291,0.114,0.6,0.114,0.924V31.594z M95.464,31.651
				c0,0.207,0.044,0.382,0.132,0.525c0.088,0.142,0.196,0.213,0.324,0.213h1.152c0.128,0,0.236-0.071,0.324-0.213
				c0.088-0.144,0.132-0.318,0.132-0.525V21.609c0-0.207-0.044-0.383-0.132-0.525c-0.088-0.143-0.196-0.213-0.324-0.213H95.92
				c-0.128,0-0.236,0.07-0.324,0.213c-0.088,0.143-0.132,0.318-0.132,0.525V31.651z"/>
			<path d="M102.088,23.823v10.14h-1.056V19.277h1.056l2.412,10.141V19.277h1.044v14.686h-1.056L102.088,23.823z"/>
		</g>
		<rect x="90.256" y="19.277" width="1.054" height="14.686"/>
	</g>
</g>
<g id="Designed_by_Freepik" display="none">
	<g display="inline">
		<g>
			<g>
				<path fill="#594741" d="M18.136,403.843v-0.27c-0.365,0.416-0.725,0.758-1.08,1.018c-0.354,0.264-0.738,0.463-1.152,0.598
					c-0.414,0.137-0.865,0.205-1.357,0.205c-0.649,0-1.252-0.139-1.805-0.414c-0.553-0.273-1.031-0.668-1.436-1.178
					c-0.405-0.512-0.712-1.109-0.92-1.799c-0.209-0.689-0.313-1.436-0.313-2.236c0-1.697,0.415-3.021,1.243-3.969
					s1.919-1.42,3.271-1.42c0.78,0,1.441,0.135,1.977,0.4c0.537,0.27,1.061,0.682,1.572,1.238v-4.008
					c0-0.555,0.109-0.977,0.334-1.262c0.221-0.285,0.537-0.426,0.947-0.426c0.412,0,0.729,0.131,0.951,0.393
					c0.221,0.262,0.332,0.645,0.332,1.156v11.973c0,0.516-0.119,0.904-0.357,1.162s-0.547,0.389-0.926,0.389
					c-0.369,0-0.676-0.135-0.92-0.404C18.257,404.72,18.136,404.337,18.136,403.843z M12.796,399.854
					c0,0.736,0.115,1.361,0.343,1.879c0.229,0.518,0.542,0.908,0.94,1.166c0.398,0.266,0.832,0.395,1.303,0.395
					c0.477,0,0.912-0.123,1.307-0.373c0.395-0.248,0.709-0.629,0.943-1.143c0.236-0.514,0.355-1.156,0.355-1.924
					c0-0.723-0.119-1.344-0.355-1.865c-0.234-0.52-0.551-0.916-0.953-1.193c-0.402-0.275-0.84-0.412-1.317-0.412
					c-0.497,0-0.94,0.143-1.332,0.424c-0.392,0.279-0.694,0.684-0.909,1.211C12.903,398.548,12.796,399.159,12.796,399.854z"/>
				<path fill="#594741" d="M30.104,400.542h-5.309c0.006,0.615,0.129,1.158,0.373,1.629c0.24,0.473,0.563,0.826,0.963,1.064
					c0.402,0.24,0.844,0.355,1.328,0.355c0.324,0,0.621-0.035,0.891-0.111c0.268-0.078,0.527-0.195,0.781-0.357
					c0.25-0.162,0.482-0.338,0.693-0.523c0.213-0.188,0.488-0.438,0.826-0.758c0.139-0.119,0.338-0.178,0.598-0.178
					c0.277,0,0.502,0.078,0.674,0.229c0.172,0.154,0.26,0.369,0.26,0.646c0,0.246-0.096,0.531-0.287,0.861
					c-0.195,0.326-0.484,0.643-0.871,0.945c-0.389,0.299-0.875,0.549-1.463,0.75c-0.586,0.197-1.26,0.299-2.021,0.299
					c-1.744,0-3.1-0.5-4.066-1.494c-0.969-0.992-1.451-2.342-1.451-4.045c0-0.803,0.117-1.547,0.357-2.232s0.588-1.273,1.043-1.766
					c0.457-0.488,1.021-0.865,1.691-1.127c0.668-0.262,1.412-0.391,2.227-0.391c1.061,0,1.971,0.221,2.729,0.67
					c0.76,0.445,1.328,1.023,1.705,1.732c0.377,0.711,0.566,1.434,0.566,2.168c0,0.684-0.195,1.125-0.584,1.33
					C31.366,400.44,30.813,400.542,30.104,400.542z M24.796,399.001h4.922c-0.066-0.93-0.318-1.625-0.752-2.084
					c-0.434-0.461-1.004-0.691-1.715-0.691c-0.676,0-1.232,0.232-1.666,0.701C25.151,397.392,24.89,398.085,24.796,399.001z"/>
				<path fill="#594741" d="M42.472,401.841c0,0.752-0.182,1.393-0.547,1.926c-0.363,0.533-0.902,0.939-1.615,1.213
					c-0.713,0.275-1.58,0.414-2.6,0.414c-0.975,0-1.811-0.15-2.506-0.449c-0.697-0.299-1.209-0.672-1.541-1.117
					c-0.33-0.449-0.496-0.896-0.496-1.348c0-0.299,0.104-0.555,0.318-0.766c0.211-0.211,0.48-0.318,0.805-0.318
					c0.285,0,0.502,0.07,0.656,0.209c0.152,0.141,0.297,0.336,0.438,0.586c0.277,0.484,0.611,0.846,0.998,1.084
					c0.389,0.238,0.916,0.357,1.588,0.357c0.543,0,0.988-0.121,1.336-0.361c0.348-0.244,0.521-0.52,0.521-0.832
					c0-0.477-0.18-0.824-0.541-1.043s-0.957-0.428-1.785-0.627c-0.934-0.232-1.695-0.475-2.281-0.73
					c-0.588-0.254-1.057-0.592-1.406-1.008c-0.352-0.42-0.529-0.934-0.529-1.541c0-0.545,0.162-1.059,0.488-1.543
					c0.324-0.482,0.805-0.869,1.438-1.156c0.633-0.291,1.396-0.436,2.291-0.436c0.703,0,1.334,0.074,1.893,0.221
					c0.561,0.145,1.029,0.342,1.402,0.588c0.375,0.244,0.66,0.516,0.855,0.814c0.195,0.297,0.293,0.59,0.293,0.875
					c0,0.311-0.105,0.566-0.313,0.766c-0.209,0.197-0.504,0.297-0.891,0.297c-0.277,0-0.516-0.078-0.709-0.238
					c-0.195-0.158-0.42-0.396-0.674-0.715c-0.203-0.266-0.445-0.479-0.725-0.637c-0.277-0.16-0.656-0.238-1.133-0.238
					c-0.49,0-0.896,0.104-1.223,0.314c-0.324,0.205-0.488,0.467-0.488,0.779c0,0.285,0.121,0.52,0.357,0.701
					c0.24,0.182,0.561,0.334,0.967,0.451c0.402,0.119,0.959,0.264,1.67,0.438c0.842,0.207,1.527,0.451,2.063,0.736
					c0.533,0.283,0.938,0.621,1.213,1.01C42.335,400.903,42.472,401.345,42.472,401.841z"/>
				<path fill="#594741" d="M45.245,393.095c-0.377,0-0.701-0.117-0.969-0.348c-0.27-0.232-0.404-0.561-0.404-0.986
					c0-0.385,0.139-0.699,0.412-0.949c0.277-0.25,0.596-0.373,0.961-0.373c0.352,0,0.662,0.113,0.934,0.338
					c0.271,0.227,0.408,0.555,0.408,0.984c0,0.418-0.133,0.746-0.398,0.98C45.925,392.976,45.61,393.095,45.245,393.095z
					 M46.587,395.897v7.844c0,0.543-0.129,0.957-0.387,1.234c-0.26,0.277-0.586,0.418-0.984,0.418c-0.4,0-0.723-0.143-0.971-0.428
					c-0.248-0.287-0.373-0.693-0.373-1.225v-7.764c0-0.537,0.125-0.941,0.373-1.215c0.248-0.27,0.57-0.408,0.971-0.408
					c0.398,0,0.725,0.139,0.984,0.408C46.458,395.036,46.587,395.413,46.587,395.897z"/>
				<path fill="#594741" d="M58.478,396.345v7.885c0,0.902-0.098,1.676-0.291,2.326c-0.189,0.65-0.498,1.186-0.924,1.611
					c-0.422,0.424-0.979,0.738-1.664,0.943s-1.539,0.309-2.561,0.309c-0.934,0-1.77-0.131-2.506-0.393
					c-0.734-0.262-1.301-0.602-1.699-1.016s-0.598-0.84-0.598-1.277c0-0.33,0.113-0.602,0.338-0.809
					c0.225-0.209,0.498-0.313,0.816-0.313c0.396,0,0.746,0.176,1.045,0.525c0.145,0.18,0.295,0.361,0.451,0.543
					s0.328,0.338,0.518,0.467c0.188,0.127,0.416,0.225,0.68,0.289c0.266,0.061,0.572,0.092,0.916,0.092
					c0.703,0,1.248-0.096,1.635-0.291c0.389-0.197,0.66-0.471,0.816-0.822c0.154-0.348,0.246-0.727,0.273-1.127
					c0.027-0.402,0.045-1.047,0.059-1.936c-0.418,0.586-0.898,1.029-1.447,1.334c-0.545,0.305-1.197,0.457-1.951,0.457
					c-0.91,0-1.703-0.23-2.383-0.695s-1.203-1.115-1.566-1.949c-0.363-0.836-0.545-1.799-0.545-2.893
					c0-0.816,0.109-1.553,0.332-2.207c0.223-0.658,0.539-1.211,0.949-1.66c0.41-0.453,0.885-0.791,1.422-1.021
					c0.537-0.227,1.125-0.34,1.77-0.34c0.77,0,1.436,0.146,1.998,0.439c0.564,0.297,1.088,0.76,1.572,1.389v-0.369
					c0-0.469,0.113-0.834,0.348-1.094c0.232-0.258,0.529-0.389,0.895-0.389c0.523,0,0.871,0.174,1.043,0.514
					C58.39,395.21,58.478,395.702,58.478,396.345z M50.612,399.786c0,1.098,0.24,1.932,0.721,2.494
					c0.48,0.564,1.104,0.846,1.865,0.846c0.449,0,0.875-0.121,1.275-0.363c0.402-0.242,0.729-0.607,0.98-1.094
					s0.379-1.078,0.379-1.773c0-1.107-0.244-1.969-0.73-2.584c-0.488-0.619-1.129-0.928-1.926-0.928
					c-0.775,0-1.396,0.297-1.863,0.887C50.845,397.858,50.612,398.698,50.612,399.786z"/>
				<path fill="#594741" d="M62.792,395.856v0.33c0.477-0.629,0.998-1.092,1.564-1.387c0.568-0.297,1.219-0.445,1.953-0.445
					c0.717,0,1.355,0.158,1.92,0.471c0.563,0.311,0.984,0.752,1.262,1.32c0.18,0.33,0.295,0.691,0.348,1.072
					c0.053,0.387,0.082,0.877,0.082,1.473v5.051c0,0.543-0.125,0.957-0.375,1.234c-0.248,0.277-0.57,0.418-0.969,0.418
					c-0.404,0-0.732-0.143-0.984-0.428c-0.252-0.287-0.377-0.693-0.377-1.225v-4.523c0-0.895-0.125-1.58-0.375-2.053
					c-0.248-0.475-0.742-0.711-1.484-0.711c-0.484,0-0.926,0.143-1.322,0.432c-0.398,0.291-0.691,0.686-0.875,1.189
					c-0.133,0.404-0.199,1.16-0.199,2.266v3.4c0,0.551-0.129,0.965-0.383,1.238c-0.256,0.275-0.586,0.414-0.988,0.414
					c-0.393,0-0.713-0.143-0.965-0.428c-0.252-0.287-0.379-0.693-0.379-1.225v-7.844c0-0.518,0.113-0.902,0.338-1.158
					s0.533-0.385,0.924-0.385c0.24,0,0.455,0.059,0.648,0.172c0.191,0.113,0.346,0.281,0.463,0.506
					C62.733,395.259,62.792,395.532,62.792,395.856z"/>
				<path fill="#594741" d="M79.304,400.542h-5.309c0.006,0.615,0.131,1.158,0.373,1.629c0.242,0.473,0.563,0.826,0.965,1.064
					c0.398,0.24,0.842,0.355,1.326,0.355c0.324,0,0.621-0.035,0.891-0.111c0.268-0.078,0.527-0.195,0.779-0.357
					s0.482-0.338,0.697-0.523c0.211-0.188,0.486-0.438,0.824-0.758c0.139-0.119,0.338-0.178,0.598-0.178
					c0.277,0,0.502,0.078,0.676,0.229c0.172,0.154,0.258,0.369,0.258,0.646c0,0.246-0.096,0.531-0.287,0.861
					c-0.193,0.326-0.484,0.643-0.871,0.945c-0.389,0.299-0.875,0.549-1.461,0.75c-0.588,0.197-1.262,0.299-2.023,0.299
					c-1.744,0-3.1-0.5-4.068-1.494c-0.965-0.992-1.449-2.342-1.449-4.045c0-0.803,0.117-1.547,0.357-2.232
					c0.238-0.686,0.586-1.273,1.045-1.766c0.455-0.488,1.02-0.865,1.688-1.127c0.67-0.262,1.414-0.391,2.229-0.391
					c1.061,0,1.969,0.221,2.729,0.67c0.76,0.445,1.328,1.023,1.705,1.732c0.377,0.711,0.568,1.434,0.568,2.168
					c0,0.684-0.197,1.125-0.588,1.33C80.565,400.44,80.013,400.542,79.304,400.542z M73.995,399.001h4.922
					c-0.066-0.93-0.316-1.625-0.75-2.084c-0.436-0.461-1.006-0.691-1.717-0.691c-0.676,0-1.232,0.232-1.666,0.701
					C74.351,397.392,74.087,398.085,73.995,399.001z"/>
				<path fill="#594741" d="M90.368,403.843v-0.27c-0.363,0.416-0.725,0.758-1.08,1.018c-0.354,0.264-0.738,0.463-1.152,0.598
					c-0.414,0.137-0.865,0.205-1.355,0.205c-0.65,0-1.252-0.139-1.807-0.414c-0.553-0.273-1.031-0.668-1.436-1.178
					c-0.404-0.512-0.711-1.109-0.92-1.799s-0.313-1.436-0.313-2.236c0-1.697,0.414-3.021,1.242-3.969s1.92-1.42,3.271-1.42
					c0.783,0,1.441,0.135,1.979,0.4c0.537,0.27,1.061,0.682,1.57,1.238v-4.008c0-0.555,0.111-0.977,0.332-1.262
					c0.223-0.285,0.541-0.426,0.951-0.426s0.727,0.131,0.949,0.393c0.221,0.262,0.334,0.645,0.334,1.156v11.973
					c0,0.516-0.119,0.904-0.359,1.162c-0.238,0.258-0.545,0.389-0.924,0.389c-0.371,0-0.678-0.135-0.92-0.404
					S90.368,404.337,90.368,403.843z M85.03,399.854c0,0.736,0.113,1.361,0.342,1.879s0.541,0.908,0.939,1.166
					c0.398,0.266,0.832,0.395,1.303,0.395c0.479,0,0.914-0.123,1.307-0.373c0.395-0.248,0.711-0.629,0.945-1.143
					c0.236-0.514,0.352-1.156,0.352-1.924c0-0.723-0.115-1.344-0.352-1.865c-0.234-0.52-0.553-0.916-0.953-1.193
					c-0.404-0.275-0.842-0.412-1.32-0.412c-0.496,0-0.939,0.143-1.33,0.424c-0.391,0.279-0.695,0.684-0.91,1.211
					C85.136,398.548,85.03,399.159,85.03,399.854z"/>
				<path fill="#594741" d="M101.462,391.87v4.146c0.51-0.529,1.029-0.938,1.561-1.217c0.531-0.283,1.188-0.422,1.969-0.422
					c0.902,0,1.691,0.211,2.373,0.639c0.678,0.43,1.203,1.049,1.58,1.859c0.375,0.813,0.563,1.775,0.563,2.891
					c0,0.822-0.105,1.574-0.314,2.26s-0.512,1.281-0.91,1.785c-0.396,0.504-0.879,0.895-1.445,1.168
					c-0.568,0.275-1.193,0.414-1.875,0.414c-0.418,0-0.811-0.051-1.178-0.15c-0.369-0.1-0.682-0.229-0.941-0.393
					c-0.258-0.162-0.479-0.328-0.66-0.502c-0.182-0.172-0.424-0.432-0.721-0.775v0.27c0,0.51-0.123,0.896-0.369,1.156
					c-0.242,0.264-0.557,0.395-0.934,0.395c-0.385,0-0.691-0.131-0.92-0.395c-0.229-0.26-0.342-0.646-0.342-1.156v-11.854
					c0-0.549,0.111-0.967,0.33-1.246c0.225-0.283,0.535-0.422,0.932-0.422c0.418,0,0.74,0.133,0.965,0.4
					C101.349,390.991,101.462,391.372,101.462,391.87z M101.591,399.935c0,1.08,0.246,1.91,0.742,2.49
					c0.492,0.58,1.141,0.869,1.943,0.869c0.682,0,1.27-0.295,1.764-0.889c0.494-0.596,0.74-1.443,0.74-2.551
					c0-0.717-0.102-1.334-0.309-1.85c-0.205-0.516-0.496-0.918-0.873-1.197c-0.379-0.281-0.82-0.424-1.322-0.424
					c-0.518,0-0.979,0.143-1.383,0.424c-0.404,0.279-0.723,0.688-0.955,1.223C101.706,398.562,101.591,399.198,101.591,399.935z"/>
				<path fill="#594741" d="M113.024,405.731l0.248-0.609l-3.34-8.41c-0.205-0.482-0.311-0.834-0.311-1.053
					c0-0.234,0.063-0.447,0.182-0.646s0.281-0.357,0.49-0.477c0.211-0.121,0.428-0.182,0.652-0.182c0.391,0,0.686,0.127,0.885,0.375
					c0.201,0.248,0.375,0.604,0.527,1.068l2.297,6.682l2.176-6.215c0.172-0.502,0.328-0.896,0.469-1.182
					c0.139-0.287,0.287-0.48,0.441-0.578c0.156-0.098,0.377-0.15,0.662-0.15c0.207,0,0.402,0.055,0.592,0.166
					c0.188,0.109,0.334,0.258,0.438,0.443c0.102,0.186,0.154,0.381,0.154,0.584c-0.027,0.127-0.07,0.305-0.131,0.539
					c-0.059,0.23-0.131,0.467-0.219,0.705l-3.539,9.268c-0.305,0.814-0.602,1.453-0.895,1.918c-0.293,0.463-0.676,0.822-1.158,1.068
					c-0.482,0.25-1.129,0.373-1.943,0.373c-0.795,0-1.393-0.086-1.789-0.258c-0.398-0.174-0.598-0.488-0.598-0.945
					c0-0.311,0.096-0.553,0.285-0.721c0.188-0.168,0.469-0.256,0.838-0.256c0.146,0,0.289,0.021,0.428,0.063
					c0.174,0.039,0.322,0.061,0.447,0.061c0.311,0,0.557-0.047,0.736-0.143c0.18-0.092,0.34-0.25,0.482-0.482
					C112.675,406.511,112.839,406.173,113.024,405.731z"/>
			</g>
			<g>
				<path fill="#594741" d="M152.344,394.591h0.646v-0.814c0-0.852,0.104-1.525,0.32-2.029c0.215-0.5,0.582-0.863,1.096-1.092
					c0.516-0.229,1.219-0.344,2.111-0.344c1.592,0,2.379,0.387,2.379,1.168c0,0.25-0.082,0.465-0.25,0.645
					c-0.16,0.176-0.359,0.268-0.584,0.268c-0.104,0-0.293-0.021-0.553-0.064c-0.25-0.033-0.475-0.057-0.652-0.057
					c-0.488,0-0.803,0.148-0.945,0.436c-0.137,0.287-0.205,0.699-0.205,1.24v0.645h0.662c1.037,0,1.549,0.311,1.549,0.938
					c0,0.439-0.133,0.723-0.41,0.842c-0.273,0.121-0.654,0.18-1.139,0.18h-0.662v7.191c0,0.535-0.127,0.943-0.389,1.225
					c-0.252,0.285-0.578,0.426-0.986,0.426c-0.383,0-0.703-0.141-0.961-0.426c-0.254-0.281-0.381-0.689-0.381-1.225v-7.191h-0.748
					c-0.406,0-0.715-0.088-0.936-0.273c-0.219-0.18-0.328-0.42-0.328-0.709C150.979,394.913,151.434,394.591,152.344,394.591"/>
				<path fill="#594741" d="M161.229,401.474v2.268c0,0.549-0.139,0.963-0.391,1.236c-0.258,0.277-0.584,0.414-0.98,0.414
					c-0.4,0-0.721-0.139-0.971-0.42c-0.248-0.277-0.377-0.688-0.377-1.23v-7.559c0-1.221,0.439-1.832,1.318-1.832
					c0.455,0,0.779,0.143,0.979,0.428s0.309,0.705,0.332,1.266c0.32-0.561,0.652-0.98,0.992-1.266
					c0.35-0.285,0.799-0.428,1.371-0.428c0.574,0,1.123,0.143,1.66,0.428c0.539,0.285,0.807,0.666,0.807,1.137
					c0,0.328-0.115,0.605-0.34,0.816c-0.23,0.219-0.477,0.326-0.74,0.326c-0.104,0-0.346-0.066-0.727-0.189
					c-0.381-0.117-0.719-0.18-1.008-0.18c-0.396,0-0.723,0.107-0.975,0.311c-0.254,0.215-0.449,0.521-0.59,0.93
					c-0.137,0.414-0.23,0.906-0.285,1.469C161.254,399.966,161.229,400.659,161.229,401.474"/>
				<path fill="#594741" d="M173.709,400.538h-5.313c0.01,0.617,0.129,1.162,0.373,1.633c0.244,0.465,0.564,0.822,0.967,1.063
					s0.84,0.355,1.326,0.355c0.328,0,0.621-0.033,0.891-0.115c0.266-0.072,0.529-0.193,0.779-0.355
					c0.254-0.162,0.482-0.334,0.697-0.523c0.211-0.186,0.488-0.438,0.826-0.754c0.139-0.119,0.34-0.182,0.594-0.182
					c0.281,0,0.506,0.078,0.68,0.23c0.176,0.154,0.254,0.369,0.254,0.646c0,0.248-0.092,0.531-0.279,0.859
					c-0.197,0.33-0.484,0.645-0.873,0.949c-0.393,0.297-0.879,0.551-1.465,0.746c-0.584,0.199-1.26,0.301-2.021,0.301
					c-1.748,0-3.104-0.496-4.068-1.49c-0.967-0.996-1.455-2.346-1.455-4.049c0-0.803,0.119-1.549,0.361-2.234
					c0.234-0.689,0.584-1.273,1.047-1.766c0.455-0.494,1.016-0.869,1.686-1.131c0.67-0.26,1.412-0.391,2.23-0.391
					c1.057,0,1.967,0.223,2.727,0.676c0.758,0.443,1.334,1.021,1.705,1.73c0.381,0.715,0.568,1.434,0.568,2.172
					c0,0.68-0.199,1.121-0.59,1.326C174.967,400.437,174.418,400.538,173.709,400.538 M168.396,398.995h4.922
					c-0.066-0.926-0.313-1.623-0.748-2.078c-0.438-0.465-1.004-0.691-1.717-0.691c-0.676,0-1.232,0.229-1.666,0.699
					C168.752,397.392,168.486,398.081,168.396,398.995"/>
				<path fill="#594741" d="M185,400.538h-5.309c0.004,0.617,0.131,1.162,0.369,1.633c0.242,0.465,0.564,0.822,0.965,1.063
					c0.402,0.24,0.842,0.355,1.33,0.355c0.322,0,0.621-0.033,0.885-0.115c0.271-0.072,0.529-0.193,0.785-0.355
					c0.254-0.162,0.48-0.334,0.695-0.523c0.207-0.186,0.484-0.438,0.824-0.754c0.143-0.119,0.34-0.182,0.596-0.182
					c0.281,0,0.506,0.078,0.682,0.23c0.172,0.154,0.248,0.369,0.248,0.646c0,0.248-0.09,0.531-0.283,0.859
					c-0.186,0.33-0.479,0.645-0.871,0.949c-0.387,0.297-0.879,0.551-1.459,0.746c-0.582,0.199-1.264,0.301-2.025,0.301
					c-1.744,0-3.098-0.496-4.07-1.49c-0.965-0.996-1.453-2.346-1.453-4.049c0-0.803,0.123-1.549,0.365-2.234
					c0.236-0.689,0.586-1.273,1.043-1.766c0.455-0.494,1.018-0.869,1.689-1.131c0.666-0.26,1.412-0.391,2.229-0.391
					c1.055,0,1.967,0.223,2.736,0.676c0.752,0.443,1.324,1.021,1.695,1.73c0.377,0.715,0.57,1.434,0.57,2.172
					c0,0.68-0.199,1.121-0.588,1.326C186.256,400.437,185.707,400.538,185,400.538 M179.691,398.995h4.918
					c-0.064-0.926-0.316-1.623-0.748-2.078c-0.439-0.465-1.006-0.691-1.719-0.691c-0.676,0-1.232,0.229-1.666,0.699
					C180.045,397.392,179.779,398.081,179.691,398.995"/>
				<path fill="#594741" d="M190.945,395.878v0.324c0.51-0.627,1.041-1.09,1.596-1.387c0.543-0.295,1.17-0.445,1.865-0.445
					c0.832,0,1.607,0.217,2.311,0.646c0.705,0.434,1.254,1.064,1.662,1.891c0.41,0.832,0.615,1.811,0.615,2.945
					c0,0.834-0.117,1.604-0.354,2.303c-0.232,0.701-0.561,1.285-0.971,1.76c-0.41,0.473-0.895,0.84-1.453,1.096
					c-0.568,0.252-1.166,0.381-1.811,0.381c-0.771,0-1.426-0.156-1.951-0.469c-0.525-0.307-1.029-0.77-1.51-1.367v4.074
					c0,1.189-0.436,1.791-1.301,1.791c-0.514,0-0.848-0.154-1.018-0.461c-0.158-0.313-0.246-0.758-0.246-1.352v-11.717
					c0-0.52,0.111-0.9,0.336-1.158c0.225-0.252,0.537-0.383,0.928-0.383c0.385,0,0.695,0.131,0.938,0.393
					C190.828,395.009,190.945,395.38,190.945,395.878 M196.268,399.821c0-0.715-0.111-1.332-0.328-1.844
					c-0.219-0.516-0.523-0.91-0.908-1.182c-0.385-0.275-0.818-0.416-1.291-0.416c-0.746,0-1.379,0.299-1.893,0.885
					c-0.516,0.594-0.773,1.461-0.773,2.609c0,1.074,0.256,1.918,0.77,2.52c0.51,0.6,1.137,0.896,1.896,0.896
					c0.449,0,0.871-0.131,1.256-0.387c0.389-0.268,0.695-0.658,0.924-1.182C196.15,401.198,196.268,400.563,196.268,399.821"/>
				<path fill="#594741" d="M201.727,393.087c-0.379,0-0.699-0.119-0.965-0.35c-0.271-0.232-0.404-0.559-0.404-0.982
					c0-0.383,0.135-0.701,0.412-0.951c0.275-0.246,0.594-0.373,0.957-0.373c0.355,0,0.666,0.113,0.936,0.336
					c0.273,0.229,0.41,0.559,0.41,0.988c0,0.42-0.133,0.746-0.395,0.98C202.41,392.968,202.096,393.087,201.727,393.087
					 M203.072,395.892v7.854c0,0.539-0.129,0.949-0.387,1.227c-0.262,0.281-0.59,0.42-0.986,0.42c-0.4,0-0.717-0.141-0.973-0.426
					c-0.244-0.291-0.369-0.697-0.369-1.221v-7.775c0-0.533,0.125-0.936,0.369-1.209c0.256-0.277,0.572-0.41,0.973-0.41
					c0.396,0,0.725,0.133,0.986,0.41C202.943,395.034,203.072,395.411,203.072,395.892"/>
				<path fill="#594741" d="M211.822,404.151l-2.391-3.943l-1.475,1.393v2.16c0,0.523-0.139,0.924-0.416,1.205
					c-0.268,0.285-0.59,0.426-0.949,0.426c-0.416,0-0.748-0.139-0.982-0.42c-0.238-0.277-0.359-0.688-0.359-1.23v-11.58
					c0-0.6,0.117-1.057,0.344-1.375c0.236-0.318,0.57-0.475,0.998-0.475c0.42,0,0.746,0.145,0.996,0.432
					c0.244,0.283,0.369,0.705,0.369,1.258v6.588l3.051-3.207c0.381-0.391,0.662-0.668,0.867-0.813
					c0.199-0.145,0.439-0.219,0.723-0.219c0.342,0,0.621,0.107,0.852,0.324c0.223,0.215,0.336,0.486,0.336,0.809
					c0,0.396-0.369,0.932-1.105,1.592l-1.439,1.322l2.785,4.379c0.201,0.328,0.354,0.57,0.441,0.738
					c0.088,0.166,0.139,0.334,0.139,0.484c0,0.432-0.121,0.768-0.359,1.021c-0.234,0.248-0.547,0.371-0.928,0.371
					c-0.33,0-0.588-0.088-0.766-0.27C212.373,404.94,212.125,404.616,211.822,404.151"/>
				<path fill="#594741" d="M217.721,405.392c-0.408,0-0.76-0.133-1.063-0.4c-0.295-0.262-0.447-0.633-0.447-1.115
					c0-0.402,0.145-0.75,0.43-1.041c0.287-0.293,0.637-0.438,1.055-0.438c0.416,0,0.77,0.145,1.07,0.432
					c0.291,0.289,0.441,0.641,0.441,1.047c0,0.475-0.15,0.848-0.441,1.109C218.465,405.259,218.117,405.392,217.721,405.392"/>
				<path fill="#594741" d="M231.223,402.03c0,0.334-0.102,0.699-0.305,1.082c-0.201,0.387-0.512,0.752-0.926,1.1
					c-0.414,0.346-0.934,0.631-1.564,0.842s-1.342,0.32-2.127,0.32c-1.682,0-2.992-0.492-3.934-1.467
					c-0.936-0.98-1.408-2.293-1.408-3.938c0-1.115,0.215-2.1,0.648-2.955c0.426-0.854,1.051-1.516,1.865-1.98
					c0.814-0.471,1.797-0.703,2.924-0.703c0.705,0,1.348,0.104,1.939,0.309c0.586,0.205,1.08,0.473,1.492,0.795
					c0.404,0.33,0.717,0.674,0.93,1.037c0.217,0.369,0.322,0.715,0.322,1.035s-0.119,0.598-0.359,0.824
					c-0.246,0.225-0.539,0.338-0.877,0.338c-0.23,0-0.416-0.059-0.566-0.172c-0.15-0.119-0.318-0.305-0.502-0.568
					c-0.332-0.502-0.676-0.881-1.041-1.129c-0.359-0.256-0.818-0.381-1.375-0.381c-0.799,0-1.451,0.313-1.941,0.941
					c-0.49,0.623-0.736,1.486-0.736,2.566c0,0.514,0.066,0.984,0.193,1.412c0.121,0.428,0.305,0.791,0.543,1.094
					c0.242,0.301,0.527,0.527,0.865,0.686c0.34,0.158,0.711,0.234,1.113,0.234c0.545,0,1.01-0.125,1.4-0.377
					c0.391-0.254,0.734-0.635,1.031-1.154c0.166-0.305,0.342-0.543,0.531-0.717c0.193-0.168,0.43-0.26,0.709-0.26
					c0.33,0,0.605,0.131,0.822,0.381C231.111,401.476,231.223,401.747,231.223,402.03"/>
				<path fill="#594741" d="M242.938,399.874c0,0.803-0.129,1.553-0.373,2.236c-0.26,0.686-0.619,1.27-1.1,1.76
					c-0.477,0.49-1.049,0.867-1.707,1.129c-0.668,0.26-1.412,0.395-2.238,0.395c-0.822,0-1.564-0.135-2.221-0.402
					c-0.652-0.262-1.225-0.643-1.703-1.133c-0.48-0.498-0.846-1.082-1.1-1.756c-0.238-0.672-0.367-1.416-0.367-2.229
					c0-0.824,0.131-1.578,0.375-2.26c0.254-0.686,0.615-1.27,1.088-1.752c0.473-0.484,1.039-0.855,1.707-1.119
					c0.674-0.262,1.414-0.393,2.221-0.393c0.822,0,1.568,0.131,2.238,0.4c0.67,0.262,1.24,0.643,1.721,1.129
					c0.48,0.496,0.84,1.078,1.09,1.75C242.811,398.312,242.938,399.056,242.938,399.874 M240.213,399.874
					c0-1.109-0.246-1.971-0.73-2.586c-0.486-0.623-1.141-0.928-1.963-0.928c-0.531,0-1,0.137-1.406,0.412
					c-0.406,0.271-0.711,0.68-0.932,1.217c-0.219,0.539-0.33,1.166-0.33,1.885c0,0.711,0.109,1.326,0.324,1.855
					c0.217,0.535,0.527,0.939,0.928,1.221c0.404,0.279,0.875,0.422,1.416,0.422c0.822,0,1.477-0.309,1.963-0.932
					C239.967,401.821,240.213,400.964,240.213,399.874"/>
				<path fill="#594741" d="M253.293,400.073v3.607c0,0.57-0.127,0.994-0.389,1.285c-0.262,0.285-0.598,0.428-1.021,0.428
					c-0.412,0-0.75-0.143-0.996-0.428c-0.26-0.291-0.391-0.715-0.391-1.285v-4.326c0-0.682-0.021-1.215-0.064-1.594
					c-0.049-0.371-0.178-0.688-0.379-0.924c-0.207-0.248-0.533-0.369-0.977-0.369c-0.891,0-1.471,0.305-1.756,0.922
					c-0.277,0.604-0.424,1.48-0.424,2.623v3.668c0,0.563-0.127,0.99-0.377,1.281c-0.262,0.285-0.596,0.432-1.012,0.432
					c-0.414,0-0.75-0.146-1.012-0.432c-0.262-0.291-0.393-0.719-0.393-1.281v-7.766c0-0.514,0.115-0.902,0.352-1.164
					c0.238-0.27,0.549-0.4,0.93-0.4c0.373,0,0.682,0.129,0.934,0.371c0.246,0.252,0.371,0.594,0.371,1.031v0.258
					c0.475-0.561,0.977-0.975,1.51-1.236c0.543-0.273,1.133-0.404,1.795-0.404c0.682,0,1.268,0.137,1.756,0.408
					c0.492,0.273,0.893,0.686,1.215,1.232c0.459-0.555,0.951-0.967,1.475-1.236c0.525-0.27,1.105-0.404,1.74-0.404
					c0.74,0,1.385,0.15,1.92,0.439c0.535,0.291,0.936,0.711,1.201,1.25c0.23,0.494,0.346,1.268,0.346,2.322v5.299
					c0,0.57-0.127,0.994-0.385,1.285c-0.258,0.285-0.602,0.428-1.023,0.428c-0.414,0-0.748-0.146-1.012-0.432
					c-0.262-0.291-0.393-0.719-0.393-1.281v-4.566c0-0.586-0.023-1.049-0.074-1.4c-0.049-0.354-0.184-0.648-0.398-0.885
					c-0.223-0.24-0.557-0.361-0.998-0.361c-0.357,0-0.695,0.111-1.02,0.322c-0.32,0.207-0.572,0.498-0.754,0.85
					C253.395,398.101,253.293,398.909,253.293,400.073"/>
			</g>
			<g>
				<path fill="#594741" d="M126.942,399.216c-0.002-0.006-0.002-0.01-0.002-0.02C126.94,399.206,126.94,399.21,126.942,399.216z"/>
				<path fill="#594741" d="M127.079,400.083c0.002,0,0.002,0,0.002,0c-0.051-0.248-0.092-0.492-0.123-0.734
					C126.989,399.593,127.03,399.839,127.079,400.083z"/>
				<path fill="#594741" d="M127.976,402.603c-0.006-0.01-0.01-0.023-0.016-0.035C127.966,402.579,127.97,402.593,127.976,402.603z"
					/>
				<path fill="#594741" d="M127.892,402.435c-0.023-0.045-0.047-0.094-0.068-0.139C127.845,402.345,127.868,402.39,127.892,402.435
					z"/>
				<path fill="#594741" d="M127.331,401.054c0.133,0.42,0.293,0.826,0.479,1.213c-0.189-0.396-0.346-0.805-0.475-1.213
					C127.333,401.054,127.333,401.054,127.331,401.054z"/>
				<path fill="#594741" d="M137.448,388.813c0.525,0,0.912,0.043,1.355,0.117l0.125-0.797c0,0-1.225-0.379-2.836-0.246
					l-0.127-0.436c0.502-0.104,0.877-0.549,0.877-1.082c0-0.609-0.496-1.104-1.105-1.104c-0.611,0-1.105,0.494-1.105,1.104
					c0,0.533,0.375,0.979,0.875,1.082l0.141,0.484c-1.711,0.234-3.072,0.904-3.072,0.904l0.24,0.738
					c1.035-0.346,1.932-0.555,2.746-0.643C136.358,388.851,136.96,388.813,137.448,388.813z"/>
				<path fill="#594741" d="M127.956,392.854l0.006-0.01c0.041-0.051,0.08-0.102,0.119-0.148l-0.328-0.236l-0.51-0.373
					c-0.029,0.039-0.832,0.779-1.467,2.145c-0.025-0.043-0.059-0.086-0.094-0.127c-0.189-0.207-0.455-0.313-0.795-0.307
					c-0.004,0-0.008,0-0.016,0c-0.207,0-0.352-0.07-0.445-0.154c0.092-0.119,0.15-0.27,0.15-0.432c0-0.387-0.316-0.701-0.701-0.701
					c-0.387,0-0.699,0.314-0.699,0.701s0.313,0.699,0.699,0.699c0.061,0,0.117-0.01,0.174-0.021c0.174,0.189,0.445,0.359,0.846,0.35
					c0.207-0.002,0.357,0.051,0.459,0.162c0.115,0.127,0.154,0.311,0.166,0.447c-0.002,0.002-0.002,0.006-0.004,0.006
					c-0.455,1.246-0.324,2.795-0.324,2.795l1.105,0.043c0.023-0.563,0.105-1.551,0.389-2.334
					C127.239,393.841,127.929,392.892,127.956,392.854z"/>
				<path fill="#594741" d="M147.079,389.739c-0.387,0-0.703,0.313-0.703,0.699c0,0.061,0.01,0.117,0.025,0.174
					c-0.191,0.174-0.357,0.449-0.352,0.85c0.002,0.205-0.051,0.355-0.162,0.455c-0.09,0.08-0.199,0.121-0.309,0.148
					c-0.824-1.154-1.84-1.859-1.84-1.859l-0.793,0.854c0.602,0.543,1.213,1.229,1.809,2.082c0.412,0.59,0.838,1.352,1.189,2.107
					l1.072-0.508c0,0-0.49-1.209-1.18-2.295c0.121-0.041,0.242-0.105,0.348-0.199c0.211-0.189,0.313-0.457,0.307-0.793
					c-0.002-0.219,0.07-0.367,0.156-0.463c0.117,0.09,0.268,0.148,0.432,0.148c0.386,0,0.7-0.314,0.7-0.701
					S147.465,389.739,147.079,389.739z"/>
				<path fill="#594741" d="M144.298,399.372c-1.477,0.719-3.902,1.668-7.1,2.115c-1.254,0.172-2.471,0.236-3.59,0.236
					c-1.455,0-2.74-0.107-3.729-0.232c-1.127-0.143-2.006-0.316-2.545-0.438c0.129,0.408,0.285,0.816,0.475,1.213
					c0.004,0.01,0.008,0.021,0.014,0.029c0.021,0.045,0.045,0.094,0.068,0.139c0.021,0.047,0.045,0.092,0.068,0.133
					c0.006,0.012,0.01,0.025,0.016,0.035c0.318,0.596,0.699,1.146,1.133,1.621c1.508,1.65,3.043,1.908,3.057,1.912l0.025,0.004
					l0.021,0.008c0.014,0.004,1.375,0.443,3.445,0.443c2.037,0,4.033-0.412,5.939-1.221c1.41-0.721,2.744-1.818,3.406-2.795
					c0.512-0.756,0.881-1.564,1.1-2.4c0.115-0.447,0.207-1.16,0.154-1.912C145.841,398.542,145.185,398.94,144.298,399.372z"/>
				<path fill="#594741" d="M128.431,393.202c-0.043,0.063-0.684,0.969-1.188,2.359c-0.379,1.043-0.363,2.559-0.363,2.576v0.002
					c0,0.355,0.02,0.709,0.061,1.057c0,0.01,0,0.014,0.002,0.02c0.004,0.045,0.012,0.088,0.016,0.133
					c0.031,0.242,0.072,0.486,0.123,0.734c0.734,0.188,5.107,1.207,9.994,0.525c3.066-0.426,5.391-1.33,6.803-2.016
					c1.174-0.57,1.928-1.086,2.221-1.297c-0.289-1.076-1.09-2.764-1.822-3.816c-2.102-3-4.365-3.77-5.527-3.961
					c-0.443-0.072-0.797-0.113-1.301-0.113c-0.469,0-1.049,0.035-1.824,0.117c-0.777,0.082-1.645,0.287-2.65,0.625
					c-1.412,0.471-2.688,1.213-3.693,2.145l-0.033,0.031C129.099,392.46,128.788,392.749,128.431,393.202z M141.274,392.505
					c1.006,0,1.824,0.816,1.824,1.824s-0.818,1.826-1.824,1.826s-1.824-0.818-1.824-1.826S140.269,392.505,141.274,392.505z
					 M132.646,392.433c1.631,0,2.949,1.32,2.949,2.947c0,1.631-1.318,2.947-2.949,2.947c-1.627,0-2.947-1.316-2.947-2.947
					C129.698,393.753,131.019,392.433,132.646,392.433z"/>
			</g>
		</g>
	</g>
</g>
</svg>
