<?xml version="1.0" encoding="utf-8"?>
<!-- Generator: Adobe Illustrator 16.0.0, SVG Export Plug-In . SVG Version: 6.00 Build 0)  -->
<!DOCTYPE svg PUBLIC "-//W3C//DTD SVG 1.1//EN" "http://www.w3.org/Graphics/SVG/1.1/DTD/svg11.dtd">
<svg version="1.1" id="Calque_1" xmlns="http://www.w3.org/2000/svg" xmlns:xlink="http://www.w3.org/1999/xlink" x="0px" y="0px"
	 width="42.75px" height="43px" viewBox="0 0 42.75 43" enable-background="new 0 0 42.75 43" xml:space="preserve">
<g>
	<circle fill="#F18F01" cx="21.375" cy="21.5" r="20.673"/>
	<path fill="#FFFFFF" d="M31.733,17.556c0.01,0.2,0.014,0.4,0.014,0.602c0,6.147-4.68,13.237-13.236,13.237
		c-2.627,0-5.072-0.771-7.131-2.091c0.364,0.044,0.735,0.064,1.109,0.064c2.179,0,4.186-0.742,5.779-1.991
		c-2.037-0.037-3.755-1.382-4.347-3.23c0.284,0.055,0.576,0.084,0.876,0.084c0.424,0,0.834-0.057,1.225-0.164
		c-2.128-0.428-3.731-2.307-3.731-4.561c0-0.02,0-0.039,0-0.059c0.626,0.349,1.344,0.558,2.107,0.582
		c-1.248-0.834-2.069-2.259-2.069-3.872c0-0.853,0.229-1.651,0.63-2.339c2.293,2.814,5.722,4.666,9.588,4.86
		c-0.079-0.341-0.121-0.695-0.121-1.06c0-2.569,2.083-4.652,4.653-4.652c1.338,0,2.547,0.565,3.396,1.47
		c1.059-0.209,2.055-0.596,2.953-1.13c-0.348,1.086-1.086,1.998-2.045,2.574c0.939-0.112,1.838-0.363,2.672-0.733
		C33.433,16.081,32.642,16.9,31.733,17.556z"/>
</g>
</svg>
